<svg id="visual" viewBox="0 0 900 600" width="900" height="600" xmlns="http://www.w3.org/2000/svg" xmlns:xlink="http://www.w3.org/1999/xlink" version="1.1"><rect x="0" y="0" width="900" height="600" fill="#2f3061"></rect><path d="M0 397L129 365L257 428L386 380L514 391L643 354L771 438L900 396L900 601L771 601L643 601L514 601L386 601L257 601L129 601L0 601Z" fill="#87c0cd"></path><path d="M0 415L129 473L257 467L386 407L514 429L643 435L771 447L900 394L900 601L771 601L643 601L514 601L386 601L257 601L129 601L0 601Z" fill="#67a6c1"></path><path d="M0 442L129 487L257 469L386 483L514 446L643 466L771 447L900 457L900 601L771 601L643 601L514 601L386 601L257 601L129 601L0 601Z" fill="#518ab4"></path><path d="M0 532L129 483L257 506L386 525L514 522L643 509L771 487L900 504L900 601L771 601L643 601L514 601L386 601L257 601L129 601L0 601Z" fill="#4a6da3"></path><path d="M0 563L129 559L257 568L386 567L514 571L643 547L771 541L900 551L900 601L771 601L643 601L514 601L386 601L257 601L129 601L0 601Z" fill="#4e4f8b"></path></svg>