<svg id="visual" viewBox="0 0 900 600" width="900" height="600" xmlns="http://www.w3.org/2000/svg" xmlns:xlink="http://www.w3.org/1999/xlink" version="1.1"><rect x="0" y="0" width="900" height="600" fill="#2f3061"></rect><path d="M0 315L129 315L129 250L257 250L257 285L386 285L386 383L514 383L514 376L643 376L643 339L771 339L771 300L900 300L900 344L900 601L900 601L771 601L771 601L643 601L643 601L514 601L514 601L386 601L386 601L257 601L257 601L129 601L129 601L0 601Z" fill="#6ca6c1"></path><path d="M0 418L129 418L129 416L257 416L257 356L386 356L386 454L514 454L514 414L643 414L643 457L771 457L771 444L900 444L900 358L900 601L900 601L771 601L771 601L643 601L643 601L514 601L514 601L386 601L386 601L257 601L257 601L129 601L129 601L0 601Z" fill="#4f7cab"></path><path d="M0 445L129 445L129 531L257 531L257 471L386 471L386 542L514 542L514 514L643 514L643 444L771 444L771 533L900 533L900 474L900 601L900 601L771 601L771 601L643 601L643 601L514 601L514 601L386 601L386 601L257 601L257 601L129 601L129 601L0 601Z" fill="#4e4f8b"></path></svg>