<svg xmlns="http://www.w3.org/2000/svg" version="1.1" xmlnsXlink="http://www.w3.org/1999/xlink" xmlnsSvgjs="http://svgjs.dev/svgjs" width="1000" height="267" viewBox="0 0 1000 267">
    <g transform="matrix(1,0,0,1,-0.6060513055235788,0.19286408130534483)">
<svg viewBox="0 0 396 106" data-background-color="#ffffff" preserveAspectRatio="xMidYMid meet" height="267" width="1000" xmlns="http://www.w3.org/2000/svg" xmlns:xlink="http://www.w3.org/1999/xlink">
    <g id="tight-bounds" transform="matrix(1,0,0,1,0.23999631698734447,-0.07656776261561049)">
    <svg viewBox="0 0 395.52 106.15304720671753" height="106.15304720671753" width="395.52">
    <g>
        <svg viewBox="0 0 582.0175949990187 156.20687003709304" height="106.15304720671753" width="395.52">
        <g transform="matrix(1,0,0,1,186.49759499901865,46.02613262236307)">
        <svg viewBox="0 0 395.52 64.1546047923669" height="64.1546047923669" width="395.52">
        <g id="textblocktransform">
        <svg viewBox="0 0 395.52 64.1546047923669" height="64.1546047923669" width="395.52" id="textblock">
        <g>
        <svg viewBox="0 0 395.52 64.1546047923669" height="64.1546047923669" width="395.52">
        <g transform="matrix(1,0,0,1,0,0)">
        <svg width="395.52" viewBox="2.319999933242798 -36.040000915527344 225.14999389648438 36.53000259399414" height="64.1546047923669" data-palette-color="#113f67">
        <path d="M27.03-18.7L27.03-4.03Q24.95-1.78 21.94-0.65 18.92 0.49 15.33 0.49L15.33 0.49Q9.2 0.49 5.81-3.31 2.42-7.1 2.32-14.36L2.32-14.36 2.32-20.75Q2.32-28.1 5.53-32.07 8.74-36.04 14.89-36.04L14.89-36.04Q20.68-36.04 23.62-33.18 26.56-30.32 27.03-24.22L27.03-24.22 20.04-24.22Q19.75-27.61 18.63-28.85 17.5-30.08 15.11-30.08L15.11-30.08Q12.21-30.08 10.89-27.95 9.57-25.83 9.52-21.19L9.52-21.19 9.52-14.75Q9.52-9.89 10.97-7.68 12.43-5.47 15.75-5.47L15.75-5.47Q17.87-5.47 19.19-6.32L19.19-6.32 19.82-6.76 19.82-13.28 14.79-13.28 14.79-18.7 27.03-18.7ZM57.13-20.65L57.13-14.58Q57.13-7.42 53.75-3.47 50.36 0.49 44.36 0.49L44.36 0.49Q38.38 0.49 34.96-3.43 31.54-7.35 31.49-14.4L31.49-14.4 31.49-20.48Q31.49-27.81 34.89-31.92 38.28-36.04 44.31-36.04L44.31-36.04Q50.24-36.04 53.66-31.99 57.08-27.95 57.13-20.65L57.13-20.65ZM49.92-14.36L49.92-20.53Q49.92-25.34 48.56-27.69 47.19-30.03 44.31-30.03L44.31-30.03Q41.45-30.03 40.09-27.77 38.72-25.51 38.67-20.9L38.67-20.9 38.67-14.58Q38.67-9.91 40.06-7.7 41.45-5.49 44.36-5.49L44.36-5.49Q47.17-5.49 48.53-7.65 49.9-9.81 49.92-14.36L49.92-14.36ZM87.3-20.65L87.3-14.58Q87.3-7.42 83.92-3.47 80.54 0.49 74.53 0.49L74.53 0.49Q68.55 0.49 65.13-3.43 61.71-7.35 61.66-14.4L61.66-14.4 61.66-20.48Q61.66-27.81 65.06-31.92 68.45-36.04 74.48-36.04L74.48-36.04Q80.41-36.04 83.83-31.99 87.25-27.95 87.3-20.65L87.3-20.65ZM80.1-14.36L80.1-20.53Q80.1-25.34 78.73-27.69 77.36-30.03 74.48-30.03L74.48-30.03Q71.63-30.03 70.26-27.77 68.89-25.51 68.84-20.9L68.84-20.9 68.84-14.58Q68.84-9.91 70.23-7.7 71.63-5.49 74.53-5.49L74.53-5.49Q77.34-5.49 78.71-7.65 80.07-9.81 80.1-14.36L80.1-14.36ZM101.65 0L92.45 0 92.45-35.55 101.85-35.55Q108.07-35.55 111.77-31.59 115.47-27.64 115.54-20.75L115.54-20.75 115.54-14.99Q115.54-7.98 111.85-3.99 108.15 0 101.65 0L101.65 0ZM102.24-29.57L99.63-29.57 99.63-5.96 101.77-5.96Q105.36-5.96 106.83-7.85 108.29-9.74 108.37-14.38L108.37-14.38 108.37-20.56Q108.37-25.54 106.97-27.5 105.58-29.47 102.24-29.57L102.24-29.57ZM129.9 0L120.69 0 120.69-35.55 130.09-35.55Q136.32-35.55 140.02-31.59 143.72-27.64 143.79-20.75L143.79-20.75 143.79-14.99Q143.79-7.98 140.09-3.99 136.39 0 129.9 0L129.9 0ZM130.48-29.57L127.87-29.57 127.87-5.96 130.02-5.96Q133.61-5.96 135.07-7.85 136.54-9.74 136.61-14.38L136.61-14.38 136.61-20.56Q136.61-25.54 135.22-27.5 133.83-29.47 130.48-29.57L130.48-29.57ZM173.96-20.65L173.96-14.58Q173.96-7.42 170.58-3.47 167.2 0.49 161.19 0.49L161.19 0.49Q155.21 0.49 151.79-3.43 148.38-7.35 148.33-14.4L148.33-14.4 148.33-20.48Q148.33-27.81 151.72-31.92 155.11-36.04 161.14-36.04L161.14-36.04Q167.08-36.04 170.5-31.99 173.91-27.95 173.96-20.65L173.96-20.65ZM166.76-14.36L166.76-20.53Q166.76-25.34 165.39-27.69 164.03-30.03 161.14-30.03L161.14-30.03Q158.29-30.03 156.92-27.77 155.55-25.51 155.51-20.9L155.51-20.9 155.51-14.58Q155.51-9.91 156.9-7.7 158.29-5.49 161.19-5.49L161.19-5.49Q164-5.49 165.37-7.65 166.74-9.81 166.76-14.36L166.76-14.36ZM197.47-21.17L197.47-15.38 186.29-15.38 186.29-5.96 199.52-5.96 199.52 0 179.11 0 179.11-35.55 199.47-35.55 199.47-29.57 186.29-29.57 186.29-21.17 197.47-21.17ZM219.76 0L214.41-12.99 210.85-12.99 210.85 0 203.67 0 203.67-35.55 215.12-35.55Q220.51-35.55 223.46-32.75 226.4-29.96 226.4-24.8L226.4-24.8Q226.4-17.72 221.25-14.89L221.25-14.89 227.47-0.34 227.47 0 219.76 0ZM210.85-29.57L210.85-18.97 214.92-18.97Q217.07-18.97 218.15-20.4 219.22-21.83 219.22-24.22L219.22-24.22Q219.22-29.57 215.05-29.57L215.05-29.57 210.85-29.57Z" opacity="1" transform="matrix(1,0,0,1,0,0)" fill="#113f67" class="wordmark-text-0" data-fill-palette-color="primary" id="text-0">
        </path>
        </svg>
        </g>
        </svg>
        </g>
        </svg>
        </g>
        </svg>
        </g>
        <g>
        <svg viewBox="0 0 156.20687003709304 156.20687003709304" height="156.20687003709304" width="156.20687003709304">
        <g>
        <svg>
        </svg>
        </g>
        <g id="icon-0">
        <svg viewBox="0 0 156.20687003709304 156.20687003709304" height="156.20687003709304" width="156.20687003709304">
        <g>
        <path d="M0 78.103c0-43.135 34.968-78.103 78.103-78.103 43.135 0 78.103 34.968 78.104 78.103 0 43.135-34.968 78.103-78.104 78.104-43.135 0-78.103-34.968-78.103-78.104zM78.103 150.421c39.94 0 72.318-32.378 72.318-72.318 0-39.94-32.378-72.318-72.318-72.317-39.94 0-72.318 32.378-72.317 72.317 0 39.94 32.378 72.318 72.317 72.318z" data-fill-palette-color="tertiary" fill="#113f67" stroke="transparent">
        </path>
        </g>
        <g transform="matrix(1,0,0,1,32.9051209278246,40.940372934666605)">
        <svg viewBox="0 0 90.39662818144384 74.32612416775983" height="74.32612416775983" width="90.39662818144384">
        <g>
        <svg xmlns="http://www.w3.org/2000/svg" xmlns:xlink="http://www.w3.org/1999/xlink" viewBox="5 13 90 74.00000762939453" version="1.1" xml:space="preserve" x="0" y="0" height="74.32612416775983" width="90.39662818144384" class="icon-s-0" data-fill-palette-color="accent" id="s-0">
        <g fill="#2f3061" data-fill-palette-color="accent">
        <path d="M47.212 68.011C47.239 68.019 24.6 61.074 24.6 61.074 20.322 59.95 16.128 62.467 16.128 62.467 16.128 62.467 7.227 67.299 6.987 67.439 5.215 68.474 5.008 69.534 5.008 72.329 5.008 72.512 5 82.355 5 82.355 5 85.257 6.433 85.894 8.649 84.942L14.189 82.143C16.994 80.541 20.08 81.427 20.08 81.427L40.265 86.784C43.136 87.546 45.771 86.043 45.771 86.043L72.613 70.736C72.522 70.788 77.046 68.118 74.691 64.147 72.06 59.711 67.515 62.125 67.515 62.125L51.685 71.022C51.925 73.219 50.993 75.409 49.373 76.478 47.436 77.755 44.971 77.192 44.326 77.021 38.705 75.65 33.041 74.04 27.396 72.606 27.074 72.521 26.685 72.475 26.442 72.524 25.392 72.587 24.237 73.246 23.412 73.539 23.005 73.772 22.663 73.341 22.584 73.207 22.114 72.402 23.114 72.099 23.317 71.982 24.471 71.323 25.382 70.713 27.086 70.993 33.206 72.154 39.428 74.251 45.615 75.656 50.479 76.94 51.976 69.264 47.212 68.011ZM31.832 51.773C31.832 56.843 35.952 60.954 41.035 60.954 46.118 60.954 50.238 56.843 50.238 51.773 50.238 46.703 46.118 42.593 41.035 42.593 35.952 42.593 31.832 46.703 31.832 51.773ZM72.769 38.242C72.769 38.242 74.832 37.246 74.843 37.222L93.193 29.832C94.53 29.009 94.907 28.141 95 26.374L95 15.438C94.773 13.246 93.483 12.76 91.571 13.519L86.766 15.22C83.921 16.187 81.218 15.675 81.218 15.675L58.288 13 55.901 13.21 40.834 18.193 38.96 19.299 28.062 31.143C26.675 32.799 27.565 35.992 29.621 37.257 31.677 38.523 33.984 37.765 35.508 36.084L43.268 27.703C43.886 26.979 44.666 26.657 44.666 26.657L53.407 24.341C61.815 22.553 65.472 30.144 65.472 30.144L49.55 33.229C47.22 33.857 45.787 36.261 46.349 38.597 46.349 38.597 47.83 42.627 51.587 41.69L70.386 38.629 72.769 38.242Z" fill="#6ca6c1" data-fill-palette-color="accent">
        </path></g></svg></g></svg></g></svg></g></svg></g></svg></g><defs></defs></svg>
        <rect width="395.52" height="106.15304720671753" fill="none" stroke="none" visibility="hidden"></rect></g></svg></g></svg>